<?xml version="1.0" encoding="UTF-8"?>
<svg xmlns="http://www.w3.org/2000/svg" width="160" height="40" viewBox="0 0 160 40" role="img" aria-labelledby="title desc">
  <title id="title">Tradia</title>
  <desc id="desc">Logo for Tradia: stylized T with candlesticks</desc>
  <defs>
    <linearGradient id="g" x1="0%" y1="0%" x2="100%" y2="0%">
      <stop offset="0%" stop-color="#6366F1"/>
      <stop offset="100%" stop-color="#22D3EE"/>
    </linearGradient>
  </defs>
  <!-- Mark: Stylized T built from candlesticks -->
  <g transform="translate(6,6)">
    <!-- Crossbar -->
    <rect x="0" y="0" width="38" height="4" rx="2" fill="url(#g)"/>
    <!-- Stem -->
    <rect x="16" y="4" width="6" height="20" rx="3" fill="url(#g)"/>
    <!-- Candlesticks (left/right) -->
    <g opacity="0.9">
      <line x1="6" y1="8" x2="6" y2="22" stroke="#94A3B8" stroke-width="2" stroke-linecap="round"/>
      <rect x="3" y="11" width="6" height="7" rx="2" fill="#94A3B8"/>
    </g>
    <g opacity="0.9">
      <line x1="32" y1="8" x2="32" y2="22" stroke="#94A3B8" stroke-width="2" stroke-linecap="round"/>
      <rect x="29" y="14" width="6" height="6" rx="2" fill="#94A3B8"/>
    </g>
  </g>
  <!-- Wordmark -->
  <g transform="translate(56,27)">
    <path d="M0-2.5 Q0-8 6.2-8 9.3-8 11.2-6.9 L10.1-4.9 Q8.6-5.8 6.4-5.8 3.9-5.8 3.9-2.7 3.9 0.5 6.6 0.5 8.8 0.5 10.3-0.6 L11.5 1.2 Q9.6 2.6 6.4 2.6 0 2.6 0-2.5Z" fill="#E5E7EB"/>
    <path d="M16.1 2.4 V-10.6 H19.4 V2.4 Z" fill="#E5E7EB"/>
    <path d="M24.2-6.9 H27.3 V-5.6 H27.4 Q28.7-7.9 31.6-7.9 35.5-7.9 36-4.2 36.1-3.7 36.1-2.9 V2.4 H32.8 V-2.3 Q32.8-4.4 32.1-5.2 31.4-5.9 30-5.9 28.4-5.9 27.6-4.8 26.7-3.7 26.7-1.8 V2.4 H23.5 Z" fill="#E5E7EB"/>
    <path d="M45.8 2.6 Q42.1 2.6 40.2 0.6 38.3-1.4 38.3-4.2 38.3-7 40.2-8.9 42.1-10.8 45.7-10.8 49.4-10.8 51.3-8.8 53.2-6.9 53.2-4.1 53.2-1.3 51.3 0.6 49.4 2.6 45.8 2.6ZM45.7-8 C43.9-8 42.7-6.8 42.7-4.2 42.7-1.6 43.9-0.4 45.7-0.4 49.1-0.4 49.1-6.9 45.7-8Z" fill="#E5E7EB"/>
    <path d="M57 -6.9 H60.1 V-5.5 H60.2 Q61.6-7.9 64.8-7.9 66.8-7.9 68-7 69.3-6.1 69.7-4.5 H69.8 Q71.2-7.9 74.9-7.9 77.5-7.9 78.8-6.5 80.1-5.2 80.1-2.6 V2.4 H76.8 V-2.3 Q76.8-4.4 76.2-5.1 75.6-5.9 74.2-5.9 72.6-5.9 71.7-4.8 70.8-3.7 70.8-1.9 V2.4 H67.6 V-2.3 Q67.6-4.4 66.9-5.2 66.2-5.9 64.9-5.9 63.3-5.9 62.4-4.8 61.5-3.7 61.5-1.9 V2.4 H58.3 Z" fill="#E5E7EB"/>
    <path d="M83.5-6.9 H86.7 V-5.5 H86.8 Q88.4-7.9 91.6-7.9 94.4-7.9 95.8-6.4 97.2-5 97.2-2.5 V2.4 H93.9 V-2 Q93.9-3.5 93.4-4.2 92.9-4.9 91.6-4.9 90.1-4.9 89.2-3.9 88.3-2.9 88.3-1.3 V2.4 H85.1 Z" fill="#E5E7EB"/>
  </g>
</svg>

